<?xml version="1.0" encoding="UTF-8"?>
<!DOCTYPE svg PUBLIC "-//W3C//DTD SVG 1.1//EN" "http://www.w3.org/Graphics/SVG/1.1/DTD/svg11.dtd">
<svg version="1.2" width="180.01mm" height="180.01mm" viewBox="1281 4281 18001 18001" preserveAspectRatio="xMidYMid" fill-rule="evenodd" stroke-width="28.222" stroke-linejoin="round" xmlns="http://www.w3.org/2000/svg" xmlns:ooo="http://xml.openoffice.org/svg/export" xmlns:xlink="http://www.w3.org/1999/xlink" xmlns:presentation="http://sun.com/xmlns/staroffice/presentation" xmlns:smil="http://www.w3.org/2001/SMIL20/" xmlns:anim="urn:oasis:names:tc:opendocument:xmlns:animation:1.0" xml:space="preserve">
 <defs class="EmbeddedBulletChars">
  <g id="bullet-char-template-57356" transform="scale(0.00048828125,-0.00048828125)">
   <path d="M 580,1141 L 1163,571 580,0 -4,571 580,1141 Z"/>
  </g>
  <g id="bullet-char-template-57354" transform="scale(0.00048828125,-0.00048828125)">
   <path d="M 8,1128 L 1137,1128 1137,0 8,0 8,1128 Z"/>
  </g>
  <g id="bullet-char-template-10146" transform="scale(0.00048828125,-0.00048828125)">
   <path d="M 174,0 L 602,739 174,1481 1456,739 174,0 Z M 1358,739 L 309,1346 659,739 1358,739 Z"/>
  </g>
  <g id="bullet-char-template-10132" transform="scale(0.00048828125,-0.00048828125)">
   <path d="M 2015,739 L 1276,0 717,0 1260,543 174,543 174,936 1260,936 717,1481 1274,1481 2015,739 Z"/>
  </g>
  <g id="bullet-char-template-10007" transform="scale(0.00048828125,-0.00048828125)">
   <path d="M 0,-2 C -7,14 -16,27 -25,37 L 356,567 C 262,823 215,952 215,954 215,979 228,992 255,992 264,992 276,990 289,987 310,991 331,999 354,1012 L 381,999 492,748 772,1049 836,1024 860,1049 C 881,1039 901,1025 922,1006 886,937 835,863 770,784 769,783 710,716 594,584 L 774,223 C 774,196 753,168 711,139 L 727,119 C 717,90 699,76 672,76 641,76 570,178 457,381 L 164,-76 C 142,-110 111,-127 72,-127 30,-127 9,-110 8,-76 1,-67 -2,-52 -2,-32 -2,-23 -1,-13 0,-2 Z"/>
  </g>
  <g id="bullet-char-template-10004" transform="scale(0.00048828125,-0.00048828125)">
   <path d="M 285,-33 C 182,-33 111,30 74,156 52,228 41,333 41,471 41,549 55,616 82,672 116,743 169,778 240,778 293,778 328,747 346,684 L 369,508 C 377,444 397,411 428,410 L 1163,1116 C 1174,1127 1196,1133 1229,1133 1271,1133 1292,1118 1292,1087 L 1292,965 C 1292,929 1282,901 1262,881 L 442,47 C 390,-6 338,-33 285,-33 Z"/>
  </g>
  <g id="bullet-char-template-9679" transform="scale(0.00048828125,-0.00048828125)">
   <path d="M 813,0 C 632,0 489,54 383,161 276,268 223,411 223,592 223,773 276,916 383,1023 489,1130 632,1184 813,1184 992,1184 1136,1130 1245,1023 1353,916 1407,772 1407,592 1407,412 1353,268 1245,161 1136,54 992,0 813,0 Z"/>
  </g>
  <g id="bullet-char-template-8226" transform="scale(0.00048828125,-0.00048828125)">
   <path d="M 346,457 C 273,457 209,483 155,535 101,586 74,649 74,723 74,796 101,859 155,911 209,963 273,989 346,989 419,989 480,963 531,910 582,859 608,796 608,723 608,648 583,586 532,535 482,483 420,457 346,457 Z"/>
  </g>
  <g id="bullet-char-template-8211" transform="scale(0.00048828125,-0.00048828125)">
   <path d="M -4,459 L 1135,459 1135,606 -4,606 -4,459 Z"/>
  </g>
  <g id="bullet-char-template-61548" transform="scale(0.00048828125,-0.00048828125)">
   <path d="M 173,740 C 173,903 231,1043 346,1159 462,1274 601,1332 765,1332 928,1332 1067,1274 1183,1159 1299,1043 1357,903 1357,740 1357,577 1299,437 1183,322 1067,206 928,148 765,148 601,148 462,206 346,322 231,437 173,577 173,740 Z"/>
  </g>
 </defs>
 <g class="Page">
  <g class="com.sun.star.drawing.CustomShape">
   <g id="id3">
    <rect class="BoundingBox" stroke="none" fill="none" x="1281" y="4281" width="18001" height="18001"/>
    <path fill="rgb(114,159,207)" stroke="none" d="M 10281,22281 L 1281,22281 1281,4281 19281,4281 19281,22281 10281,22281 Z"/>
   </g>
  </g>
  <g class="Group">
   <g class="com.sun.star.drawing.ClosedBezierShape">
    <g id="id4">
     <rect class="BoundingBox" stroke="none" fill="none" x="6710" y="8621" width="7143" height="9321"/>
     <path fill="none" stroke="rgb(0,0,0)" stroke-width="529" stroke-linejoin="miter" d="M 13587,14157 C 13587,16100 12107,17676 10281,17676 8456,17676 6975,16100 6975,14157 6975,12213 8521,8886 10347,8886 12173,8886 13587,12213 13587,14157 Z"/>
    </g>
   </g>
   <g class="Group">
    <g class="com.sun.star.drawing.ClosedBezierShape">
     <g id="id5">
      <rect class="BoundingBox" stroke="none" fill="none" x="7736" y="12894" width="1013" height="1585"/>
      <path fill="rgb(0,0,0)" stroke="none" d="M 7737,13686 C 7737,13503 7756,13356 7793,13244 7831,13132 7887,13046 7961,12986 8036,12925 8129,12895 8242,12895 8325,12895 8398,12911 8461,12945 8523,12978 8575,13027 8616,13090 8657,13153 8689,13230 8712,13320 8735,13411 8747,13533 8747,13686 8747,13868 8728,14015 8691,14127 8654,14238 8598,14325 8524,14386 8449,14447 8355,14477 8242,14477 8093,14477 7975,14423 7890,14316 7788,14187 7737,13977 7737,13686 Z M 7932,13686 C 7932,13941 7962,14110 8022,14194 8081,14278 8155,14321 8242,14321 8329,14321 8403,14278 8462,14194 8522,14109 8552,13940 8552,13686 8552,13431 8522,13262 8462,13178 8403,13094 8329,13052 8240,13052 8153,13052 8083,13089 8031,13163 7965,13258 7932,13432 7932,13686 Z"/>
     </g>
    </g>
    <g class="com.sun.star.drawing.ClosedBezierShape">
     <g id="id6">
      <rect class="BoundingBox" stroke="none" fill="none" x="8877" y="12901" width="1074" height="1551"/>
      <path fill="rgb(0,0,0)" stroke="none" d="M 9550,14451 C 9550,14327 9550,14204 9550,14080 9326,14080 9102,14080 8878,14080 8878,14022 8878,13964 8878,13905 9113,13571 9349,13236 9584,12901 9636,12901 9688,12901 9740,12901 9740,13236 9740,13571 9740,13905 9810,13905 9879,13905 9949,13905 9949,13964 9949,14022 9949,14080 9879,14080 9810,14080 9740,14080 9740,14204 9740,14327 9740,14451 9676,14451 9613,14451 9550,14451 Z M 9550,13905 C 9550,13673 9550,13440 9550,13207 9388,13440 9226,13673 9065,13905 9226,13905 9388,13905 9550,13905 Z"/>
     </g>
    </g>
    <g class="com.sun.star.drawing.ClosedBezierShape">
     <g id="id7">
      <rect class="BoundingBox" stroke="none" fill="none" x="10248" y="13328" width="219" height="1124"/>
      <path fill="rgb(0,0,0)" stroke="none" d="M 10249,13545 C 10249,13473 10249,13400 10249,13328 10321,13328 10393,13328 10465,13328 10465,13400 10465,13473 10465,13545 10393,13545 10321,13545 10249,13545 Z M 10249,14451 C 10249,14379 10249,14306 10249,14234 10321,14234 10393,14234 10465,14234 10465,14306 10465,14379 10465,14451 10393,14451 10321,14451 10249,14451 Z"/>
     </g>
    </g>
    <g class="com.sun.star.drawing.ClosedBezierShape">
     <g id="id8">
      <rect class="BoundingBox" stroke="none" fill="none" x="10718" y="12895" width="1026" height="1557"/>
      <path fill="rgb(0,0,0)" stroke="none" d="M 11743,14268 L 11743,14451 10719,14451 C 10718,14405 10725,14361 10741,14319 10767,14249 10809,14180 10866,14113 10924,14045 11007,13967 11115,13878 11284,13740 11397,13630 11457,13550 11516,13469 11545,13393 11545,13321 11545,13246 11518,13182 11464,13130 11411,13078 11340,13053 11254,13053 11162,13053 11089,13080 11034,13135 10979,13190 10951,13266 10950,13363 L 10755,13343 C 10768,13197 10819,13086 10906,13010 10993,12933 11111,12895 11258,12895 11407,12895 11524,12936 11611,13019 11697,13101 11741,13203 11741,13325 11741,13387 11728,13448 11703,13508 11677,13568 11635,13631 11576,13697 11518,13763 11420,13854 11283,13970 11169,14066 11096,14131 11063,14165 11031,14199 11004,14233 10983,14268 L 11743,14268 Z"/>
     </g>
    </g>
    <g class="com.sun.star.drawing.ClosedBezierShape">
     <g id="id9">
      <rect class="BoundingBox" stroke="none" fill="none" x="11944" y="12894" width="1022" height="1585"/>
      <path fill="rgb(0,0,0)" stroke="none" d="M 12239,13610 C 12160,13581 12102,13540 12064,13487 12025,13433 12006,13369 12006,13294 12006,13181 12047,13087 12128,13010 12209,12933 12317,12895 12451,12895 12587,12895 12695,12934 12778,13012 12860,13091 12901,13187 12901,13299 12901,13371 12883,13434 12845,13487 12807,13540 12750,13581 12673,13610 12768,13641 12841,13691 12890,13760 12940,13829 12965,13912 12965,14008 12965,14140 12918,14252 12824,14342 12731,14432 12607,14477 12455,14477 12302,14477 12178,14432 12085,14341 11991,14251 11944,14138 11944,14002 11944,13902 11970,13817 12021,13749 12072,13681 12145,13635 12239,13610 Z M 12201,13288 C 12201,13361 12224,13421 12272,13468 12319,13514 12380,13537 12456,13537 12529,13537 12589,13514 12636,13468 12683,13422 12706,13365 12706,13298 12706,13229 12682,13170 12634,13122 12585,13075 12525,13051 12453,13051 12381,13051 12321,13074 12273,13121 12225,13167 12201,13223 12201,13288 Z M 12140,14003 C 12140,14058 12152,14110 12178,14161 12204,14212 12242,14251 12293,14279 12344,14307 12398,14321 12457,14321 12547,14321 12623,14291 12682,14233 12741,14174 12770,14100 12770,14010 12770,13918 12740,13842 12679,13783 12618,13723 12542,13693 12450,13693 12361,13693 12287,13722 12228,13781 12169,13841 12140,13915 12140,14003 Z"/>
     </g>
    </g>
   </g>
  </g>
 </g>
</svg>